<?xml version="1.0" standalone="no"?>
<!DOCTYPE svg PUBLIC "-//W3C//DTD SVG 20010904//EN"
 "http://www.w3.org/TR/2001/REC-SVG-20010904/DTD/svg10.dtd">
<svg version="1.0" xmlns="http://www.w3.org/2000/svg"
 width="700.000000pt" height="700.000000pt" viewBox="0 0 700.000000 700.000000"
 preserveAspectRatio="xMidYMid meet">
<metadata>
Created by potrace 1.11, written by Peter Selinger 2001-2013
</metadata>
<g transform="translate(0.000000,700.000000) scale(0.100000,-0.100000)"
fill="#000000" stroke="none">
<path d="M3438 6816 c-33 -14 -97 -71 -124 -111 -29 -40 -88 -157 -114 -225
-12 -30 -26 -63 -31 -72 -5 -10 -9 -22 -9 -27 0 -5 -5 -22 -12 -38 -6 -15 -12
-32 -14 -38 -1 -5 -14 -48 -29 -95 -15 -47 -28 -92 -30 -100 -2 -8 -4 -15 -5
-15 -1 0 -3 -7 -5 -16 -1 -9 -11 -43 -20 -75 -9 -33 -18 -66 -20 -74 -2 -8
-18 -69 -35 -135 -18 -66 -33 -127 -35 -135 -7 -35 -127 -493 -159 -605 -65
-230 -162 -448 -230 -520 -67 -70 -125 -92 -301 -112 -110 -13 -535 -6 -760
13 -22 1 -83 5 -135 8 -52 4 -122 8 -155 11 -180 14 -294 18 -520 19 -283 1
-400 -8 -500 -40 -155 -50 -216 -129 -186 -241 20 -75 128 -206 251 -304 30
-24 57 -46 60 -49 3 -3 50 -38 105 -78 55 -39 105 -76 112 -82 7 -5 14 -10 17
-10 8 0 101 -64 104 -72 2 -5 7 -8 12 -8 5 0 36 -18 69 -40 33 -22 65 -40 71
-40 5 0 10 -4 10 -9 0 -5 15 -16 33 -25 17 -9 66 -39 107 -67 41 -27 83 -52
93 -55 9 -4 17 -10 17 -15 0 -5 4 -9 9 -9 11 0 207 -123 231 -145 9 -8 20 -15
24 -15 7 0 206 -134 266 -180 112 -86 153 -120 216 -186 97 -99 117 -139 119
-236 2 -43 -1 -99 -6 -125 -5 -26 -11 -58 -13 -70 -6 -30 -45 -175 -53 -193
-3 -8 -7 -19 -9 -25 -5 -21 -93 -262 -114 -315 -12 -30 -23 -59 -25 -65 -1 -5
-8 -23 -15 -40 -7 -16 -14 -35 -15 -40 -2 -6 -13 -33 -25 -60 -12 -27 -23 -54
-25 -60 -1 -5 -7 -21 -12 -35 -6 -14 -25 -61 -43 -105 -18 -44 -37 -91 -43
-105 -6 -14 -11 -27 -11 -30 -2 -5 -48 -126 -67 -175 -7 -16 -13 -34 -15 -40
-9 -33 -30 -81 -39 -87 -5 -4 -7 -8 -3 -8 4 0 -9 -46 -28 -102 -104 -306 -133
-522 -84 -628 67 -145 252 -127 521 51 49 33 93 59 99 59 5 0 10 3 10 8 1 4
24 23 51 42 63 44 318 243 358 280 9 8 39 33 66 55 53 43 91 74 109 90 6 6 49
41 96 80 47 38 92 76 101 85 22 21 54 46 108 88 25 19 48 37 51 41 12 15 239
181 248 181 5 0 12 7 16 15 3 8 10 15 16 15 6 0 26 11 43 24 58 44 198 112
252 123 84 16 135 8 235 -39 60 -28 272 -164 331 -212 14 -12 41 -32 59 -46
42 -32 217 -171 244 -195 6 -6 63 -53 126 -105 63 -52 120 -99 126 -105 18
-17 95 -80 169 -140 39 -31 79 -63 90 -73 182 -151 435 -319 575 -381 121 -53
228 -52 283 3 52 52 75 170 56 281 -4 22 -9 56 -12 75 -10 65 -69 278 -94 340
-4 8 -7 18 -8 23 -2 4 -4 9 -5 12 -1 3 -4 10 -5 15 -1 6 -3 11 -5 13 -1 1 -3
9 -5 17 -2 8 -15 44 -29 79 -14 36 -26 69 -26 73 0 5 -8 28 -18 51 -10 23 -27
62 -36 87 -10 25 -22 54 -27 65 -4 11 -24 63 -45 115 -20 52 -44 113 -54 135
-10 22 -21 51 -25 65 -4 14 -16 43 -26 65 -34 74 -182 483 -194 535 -2 8 -11
44 -20 80 -26 106 -28 121 -29 215 -1 75 3 98 23 139 30 64 157 191 286 286
55 40 102 76 105 80 3 4 10 9 15 11 6 2 76 48 157 102 81 53 152 97 157 97 6
0 11 4 11 9 0 5 15 16 33 25 31 16 61 34 81 49 30 21 88 57 92 57 3 0 20 10
37 23 18 12 41 28 52 34 95 58 141 88 143 95 2 4 10 8 18 8 8 0 14 5 14 11 0
5 4 8 9 4 5 -3 12 -1 15 4 5 8 177 128 225 156 22 13 89 63 126 95 17 14 48
39 70 55 22 17 76 67 120 111 177 179 190 322 35 402 -73 39 -143 57 -270 70
-90 9 -497 8 -660 -2 -229 -14 -380 -24 -470 -31 -235 -18 -619 -25 -745 -12
-185 19 -243 40 -313 115 -39 41 -142 231 -142 261 0 6 -4 19 -10 29 -27 47
-159 510 -214 752 -18 75 -97 381 -104 400 -3 8 -6 20 -7 25 -21 90 -95 321
-139 438 -31 80 -82 186 -118 243 -35 55 -107 124 -130 124 -10 0 -18 5 -18
10 0 14 -79 11 -112 -4z"/>
</g>
</svg>
